<svg width="32" height="32" viewBox="0 0 32 32" fill="none" xmlns="http://www.w3.org/2000/svg">
<g id="Group 5">
<circle id="Ellipse 1" cx="16" cy="16" r="16" fill="#F4F4F4"/>
<g id="icon">
<rect id="bavse" x="7.75" y="9.38635" width="16.5" height="14.8636" rx="1.25" stroke="#75778B" stroke-width="1.5"/>
<rect id="Rectangle 17" width="3" height="1.5" transform="matrix(1 0 0 -1 11 19)" fill="#75778B"/>
<rect id="Rectangle 18" width="3" height="1.5" transform="matrix(1 0 0 -1 18 19)" fill="#75778B"/>
<rect id="inner" x="8" y="13" width="16" height="1.5" fill="#75778B"/>
<path id="clip" fill-rule="evenodd" clip-rule="evenodd" d="M11.0229 7C10.6087 7 10.2729 7.33579 10.2729 7.75V10.3409C10.2729 10.7551 10.6087 11.0909 11.0229 11.0909C11.4372 11.0909 11.7729 10.7551 11.7729 10.3409V7.75C11.7729 7.33579 11.4372 7 11.0229 7ZM20.8413 7C20.4271 7 20.0913 7.33579 20.0913 7.75V10.3409C20.0913 10.7551 20.4271 11.0909 20.8413 11.0909C21.2555 11.0909 21.5913 10.7551 21.5913 10.3409V7.75C21.5913 7.33579 21.2555 7 20.8413 7Z" fill="#75778B"/>
</g>
</g>
</svg>
