<svg width="24" height="24" viewBox="0 0 24 24" fill="none" xmlns="http://www.w3.org/2000/svg">
<g id="Group 4">
<circle id="Ellipse 1" cx="12" cy="12" r="12" fill="#F4F4F4"/>
<path id="Vector" d="M11.993 5C8.129 5 5 8.136 5 12C5 15.864 8.129 19 11.993 19C15.864 19 19 15.864 19 12C19 8.136 15.864 5 11.993 5ZM12 17.6C8.906 17.6 6.4 15.094 6.4 12C6.4 8.906 8.906 6.4 12 6.4C15.094 6.4 17.6 8.906 17.6 12C17.6 15.094 15.094 17.6 12 17.6Z" fill="#75778B"/>
<path id="Vector_2" d="M12.25 9H11V12.5902L14.375 14L15 13.059L12.25 12.0164V9Z" fill="#75778B"/>
</g>
</svg>
