<svg width="36" height="24" viewBox="0 0 36 24" fill="none" xmlns="http://www.w3.org/2000/svg">
<path id="Vector" d="M27.7119 9.33702L27.7813 10.01H28.4579H28.6179C32.2835 10.01 35.2519 12.974 35.2519 16.625C35.2519 20.2769 32.2835 23.24 28.6179 23.24H7.38791C3.72226 23.24 0.753906 20.2769 0.753906 16.625C0.753906 12.9741 3.72226 10.01 7.38891 10.01H7.54891H8.22552L8.29495 9.33696C8.54238 6.93838 9.50605 4.79752 11.1149 3.26011C12.7172 1.72903 15.0074 0.75 18.0029 0.75C20.9967 0.75 23.2882 1.73623 24.8919 3.27194C26.5025 4.8142 27.466 6.95576 27.7119 9.33702Z" stroke="#75778B" stroke-width="1.5"/>
</svg>
