<svg width="33" height="32" viewBox="0 0 33 32" fill="none" xmlns="http://www.w3.org/2000/svg">
<path d="M3.76758 8.74994C3.76758 8.33573 4.10336 7.99994 4.51758 7.99994H29.0176C29.4318 7.99994 29.7676 8.33573 29.7676 8.74994C29.7676 9.16415 29.4318 9.49994 29.0176 9.49994H4.51758C4.10336 9.49994 3.76758 9.16415 3.76758 8.74994Z" fill="#F83030"/>
<path fill-rule="evenodd" clip-rule="evenodd" d="M27.0343 9.33331H25.5301L24.0773 28.704C24.0577 28.9649 23.8403 29.1666 23.5787 29.1666H9.9566C9.69496 29.1666 9.47756 28.9649 9.45799 28.704L8.00519 9.33331H6.50098L7.9622 28.8162C8.04047 29.8598 8.91005 30.6666 9.9566 30.6666H23.5787C24.6252 30.6666 25.4948 29.8598 25.5731 28.8162L27.0343 9.33331Z" fill="#F83030"/>
<path d="M12.5176 4.99994C12.5176 4.30958 13.0772 3.74994 13.7676 3.74994H19.7676C20.4579 3.74994 21.0176 4.30958 21.0176 4.99994V8.24994H12.5176V4.99994Z" stroke="#F83030" stroke-width="1.5"/>
<path d="M13.7676 14V24" stroke="#F83030" stroke-width="1.5" stroke-linecap="round"/>
<path d="M19.7676 14V24" stroke="#F83030" stroke-width="1.5" stroke-linecap="round"/>
</svg>
