<svg width="230" height="224" viewBox="0 0 230 224" fill="none" xmlns="http://www.w3.org/2000/svg">
<g id="undraw_no_data_re_kwbl 1" clip-path="url(#clip0_8_1264)">
<path id="Vector" d="M146.013 50.3769H84.0384C82.6261 50.3786 81.2722 50.9391 80.2735 51.9355C79.2749 52.9319 78.7131 54.2828 78.7114 55.6919V193.12L78.0011 193.336L62.7976 197.981C62.0771 198.201 61.2989 198.126 60.6337 197.773C59.9685 197.42 59.4709 196.818 59.2499 196.1L14.0266 48.715C13.8065 47.9961 13.8815 47.2194 14.2351 46.5557C14.5887 45.8919 15.192 45.3954 15.9124 45.1753L39.3409 38.0177L107.261 17.2751L130.689 10.1176C131.046 10.0081 131.421 9.96981 131.792 10.005C132.163 10.0401 132.524 10.148 132.854 10.3224C133.183 10.4969 133.475 10.7344 133.712 11.0215C133.95 11.3086 134.128 11.6396 134.237 11.9955L145.797 49.6682L146.013 50.3769Z" fill="#F5F5F5"/>
<path id="Vector_2" d="M159.537 49.6682L145.605 4.26397C145.373 3.50745 144.994 2.80391 144.49 2.19357C143.986 1.58322 143.366 1.07802 142.665 0.706845C141.965 0.335666 141.199 0.105776 140.409 0.0303217C139.62 -0.0451331 138.824 0.0353255 138.065 0.267092L105.126 10.3266L37.2101 31.0728L4.27105 41.1359C2.74088 41.6047 1.45965 42.6601 0.70858 44.0704C-0.0424862 45.4807 -0.202023 47.1308 0.264994 48.6583L47.8819 203.831C48.2613 205.064 49.0268 206.144 50.0661 206.911C51.1053 207.678 52.3637 208.093 53.6565 208.094C54.2549 208.094 54.8498 208.005 55.4214 207.828L78.0011 200.933L78.7114 200.713V199.973L78.0011 200.189L55.212 207.151C53.8613 207.562 52.4025 207.422 51.1555 206.761C49.9085 206.1 48.9752 204.972 48.5602 203.626L0.947004 48.4493C0.741411 47.7821 0.669757 47.0809 0.736141 46.386C0.802525 45.6911 1.00564 45.0161 1.33386 44.3996C1.66209 43.7831 2.10898 43.2373 2.64893 42.7934C3.18888 42.3495 3.81129 42.0162 4.48052 41.8126L37.4195 31.7496L105.336 11.0069L138.275 0.943874C138.783 0.789314 139.31 0.710507 139.841 0.710013C140.98 0.712565 142.088 1.07893 143.004 1.75545C143.919 2.43196 144.593 3.38308 144.927 4.46949L158.795 49.6682L159.015 50.3769H159.754L159.537 49.6682Z" fill="#3F3D56" fill-opacity="0.5"/>
<path id="Vector_3" d="M43.5686 45.2911C42.8841 45.2906 42.2178 45.0713 41.6674 44.6653C41.117 44.2593 40.7115 43.688 40.5104 43.0352L35.9361 28.1278C35.8132 27.7273 35.7706 27.3067 35.8106 26.8898C35.8507 26.4729 35.9726 26.068 36.1695 25.6981C36.3665 25.3283 36.6345 25.0007 36.9583 24.7342C37.2821 24.4678 37.6553 24.2675 38.0567 24.145L100.539 5.05928C101.35 4.81249 102.225 4.89666 102.974 5.2933C103.722 5.68994 104.282 6.36664 104.531 7.17489L109.106 22.0825C109.353 22.8912 109.268 23.7647 108.871 24.5114C108.473 25.2581 107.795 25.817 106.985 26.0654L44.5024 45.1511C44.1999 45.2438 43.8851 45.291 43.5686 45.2911Z" fill="#DCDDE2"/>
<path id="Vector_4" d="M67.5306 15.9289C71.4534 15.9289 74.6334 12.7561 74.6334 8.84227C74.6334 4.92842 71.4534 1.75562 67.5306 1.75562C63.6079 1.75562 60.4279 4.92842 60.4279 8.84227C60.4279 12.7561 63.6079 15.9289 67.5306 15.9289Z" fill="#DCDDE2"/>
<path id="Vector_5" d="M67.5306 13.3297C70.0146 13.3297 72.0283 11.3206 72.0283 8.84223C72.0283 6.36386 70.0146 4.35474 67.5306 4.35474C65.0466 4.35474 63.033 6.36386 63.033 8.84223C63.033 11.3206 65.0466 13.3297 67.5306 13.3297Z" fill="white"/>
<path id="Vector_6" d="M214.019 206.283H93.9824C93.1821 206.282 92.4148 205.965 91.8489 205.4C91.283 204.836 90.9647 204.07 90.9637 203.272V59.7667C90.9646 58.9682 91.283 58.2026 91.8489 57.638C92.4148 57.0734 93.1821 56.7558 93.9824 56.7549H214.019C214.819 56.7558 215.587 57.0734 216.152 57.638C216.718 58.2027 217.037 58.9682 217.038 59.7667V203.272C217.037 204.07 216.718 204.836 216.152 205.4C215.587 205.965 214.819 206.282 214.019 206.283Z" fill="#F5F5F5"/>
<path id="Vector_7" d="M158.795 49.6682H84.0384C82.4379 49.6705 80.9036 50.3058 79.7719 51.435C78.6402 52.5642 78.0034 54.095 78.0011 55.6919V200.189L78.7114 199.973V55.6919C78.7131 54.2828 79.2749 52.9319 80.2735 51.9355C81.2722 50.9391 82.6261 50.3786 84.0384 50.3769H159.015L158.795 49.6682ZM223.963 49.6682H84.0384C82.4379 49.6705 80.9036 50.3058 79.7719 51.435C78.6402 52.5642 78.0034 54.095 78.0011 55.6919V217.976C78.0034 219.573 78.6402 221.104 79.7719 222.233C80.9036 223.362 82.4379 223.998 84.0384 224H223.963C225.563 223.998 227.097 223.362 228.229 222.233C229.361 221.104 229.998 219.573 230 217.976V55.6919C229.998 54.095 229.361 52.5642 228.229 51.435C227.097 50.3058 225.563 49.6705 223.963 49.6682ZM229.29 217.976C229.288 219.385 228.726 220.736 227.728 221.733C226.729 222.729 225.375 223.29 223.963 223.291H84.0384C82.6261 223.29 81.2722 222.729 80.2735 221.733C79.2749 220.736 78.7131 219.385 78.7114 217.976V55.6919C78.7131 54.2828 79.2749 52.9319 80.2735 51.9355C81.2722 50.9391 82.6261 50.3786 84.0384 50.3769H223.963C225.375 50.3786 226.729 50.9391 227.728 51.9355C228.726 52.9319 229.288 54.2828 229.29 55.6919V217.976Z" fill="#3F3D56" fill-opacity="0.5"/>
<path id="Vector_8" d="M186.673 65.2589H121.328C120.481 65.2579 119.668 64.9216 119.069 64.3238C118.47 63.7259 118.133 62.9153 118.132 62.0699V46.4792C118.133 45.6337 118.47 44.8232 119.069 44.2253C119.668 43.6275 120.481 43.2912 121.328 43.2902H186.673C187.521 43.2912 188.333 43.6275 188.932 44.2253C189.532 44.8232 189.869 45.6337 189.87 46.4792V62.0699C189.869 62.9153 189.532 63.7259 188.932 64.3238C188.333 64.9216 187.521 65.2579 186.673 65.2589Z" fill="#DCDDE2"/>
<path id="Vector_9" d="M154.001 44.3532C157.923 44.3532 161.103 41.1804 161.103 37.2665C161.103 33.3527 157.923 30.1799 154.001 30.1799C150.078 30.1799 146.898 33.3527 146.898 37.2665C146.898 41.1804 150.078 44.3532 154.001 44.3532Z" fill="#DCDDE2"/>
<path id="Vector_10" d="M154.001 41.583C156.39 41.583 158.327 39.6505 158.327 37.2666C158.327 34.8827 156.39 32.9501 154.001 32.9501C151.611 32.9501 149.674 34.8827 149.674 37.2666C149.674 39.6505 151.611 41.583 154.001 41.583Z" fill="white"/>
</g>
<defs>
<clipPath id="clip0_8_1264">
<rect width="230" height="224" fill="white"/>
</clipPath>
</defs>
</svg>
