<svg width="32" height="32" viewBox="0 0 32 32" fill="none" xmlns="http://www.w3.org/2000/svg">
<g id="Group 4">
<circle id="Ellipse 1" cx="16" cy="16" r="16" fill="#F4F4F4"/>
<g id="Group">
<path id="Vector" d="M15.9998 16.9C17.491 16.9 18.6998 15.6912 18.6998 14.2C18.6998 12.7088 17.491 11.5 15.9998 11.5C14.5086 11.5 13.2998 12.7088 13.2998 14.2C13.2998 15.6912 14.5086 16.9 15.9998 16.9Z" stroke="#75778B" stroke-width="1.5" stroke-linecap="round" stroke-linejoin="round"/>
<path id="Vector_2" d="M15.9998 7C14.0902 7 12.2589 7.75857 10.9086 9.10883C9.55837 10.4591 8.7998 12.2904 8.7998 14.2C8.7998 15.9028 9.1616 17.017 10.1498 18.25L15.9998 25L21.8498 18.25C22.838 17.017 23.1998 15.9028 23.1998 14.2C23.1998 12.2904 22.4412 10.4591 21.091 9.10883C19.7407 7.75857 17.9094 7 15.9998 7V7Z" stroke="#75778B" stroke-width="1.5" stroke-linecap="round" stroke-linejoin="round"/>
</g>
</g>
</svg>
