<svg width="86" height="26" viewBox="0 0 86 26" fill="none" xmlns="http://www.w3.org/2000/svg">
  <g id="Group 1">
    <g id="Group 131">
      <g id="Tourbay">
        <path d="M7.76953 2.25977H7.46484C5.92448 2.25977 4.76497 2.611 3.98633 3.31348C3.04688 4.15983 2.57715 5.56055 2.57715 7.51562C2.57715 8.05729 2.63639 8.48893 2.75488 8.81055C2.78874 8.92057 2.83105 9.0179 2.88184 9.10254C2.91569 9.16178 2.93262 9.22103 2.93262 9.28027C1.99316 9.28027 1.30762 9.09408 0.875977 8.72168C0.393555 8.31543 0.152344 7.66374 0.152344 6.7666C0.152344 5.86947 0.317383 5.01888 0.647461 4.21484C0.986003 3.40234 1.49805 2.69141 2.18359 2.08203C2.91992 1.42188 3.85514 0.909831 4.98926 0.545898C6.13184 0.181966 7.47754 0 9.02637 0C9.91504 0 10.7656 0.0507812 11.5781 0.152344C11.832 0.177734 12.1621 0.224284 12.5684 0.291992C13.2454 0.418945 13.8971 0.503581 14.5234 0.545898C14.8281 0.579753 15.2132 0.59668 15.6787 0.59668C16.2542 0.59668 16.8044 0.545898 17.3291 0.444336C17.8538 0.342773 18.3109 0.211589 18.7002 0.0507812C18.6579 1.1849 18.3659 2.01855 17.8242 2.55176C17.291 3.08496 16.4997 3.35156 15.4502 3.35156C14.8831 3.35156 14.3118 3.30501 13.7363 3.21191C13.1608 3.11882 12.3864 2.97493 11.4131 2.78027L7.82031 19.4746H4.08789L7.76953 2.25977Z" fill="#F16B51"/>
        <path d="M16.3135 19.5762C15.027 19.5762 14.0326 19.263 13.3301 18.6367C12.543 17.9427 12.1494 16.889 12.1494 15.4756C12.1494 14.9424 12.2044 14.3542 12.3145 13.7109C12.4245 13.0592 12.5938 12.4033 12.8223 11.7432C13.347 10.1689 14.096 8.91211 15.0693 7.97266C16.2458 6.82161 17.6465 6.24609 19.2715 6.24609C21.4974 6.24609 22.6104 7.62988 22.6104 10.3975V10.4229C22.6611 10.4398 22.7035 10.4482 22.7373 10.4482H22.8896C23.4652 10.4482 24.1465 10.2874 24.9336 9.96582C25.6276 9.67806 26.2835 9.31836 26.9014 8.88672L27.1299 9.59766C26.6221 10.1309 25.9661 10.5837 25.1621 10.9561C24.3665 11.3285 23.4863 11.5951 22.5215 11.7559C22.4199 12.9323 22.1914 14.0072 21.8359 14.9805C21.4805 15.9453 21.0234 16.7747 20.4648 17.4688C19.9147 18.1458 19.2842 18.6663 18.5732 19.0303C17.8623 19.3942 17.109 19.5762 16.3135 19.5762ZM17.3545 17.2402C17.6592 17.2402 17.9681 17.1048 18.2812 16.834C18.6029 16.5547 18.9033 16.1696 19.1826 15.6787C19.4619 15.1878 19.7031 14.6123 19.9062 13.9521C20.1094 13.292 20.2617 12.5853 20.3633 11.832C20.1094 11.7643 19.9274 11.6374 19.8174 11.4512C19.7158 11.265 19.665 11.028 19.665 10.7402C19.665 10.3848 19.737 10.0885 19.8809 9.85156C20.0247 9.61458 20.2236 9.44108 20.4775 9.33105C20.4437 8.78092 20.3548 8.38737 20.2109 8.15039C20.1348 8.0319 20.0374 7.94727 19.9189 7.89648C19.8089 7.8457 19.665 7.82031 19.4873 7.82031C18.9033 7.82031 18.332 8.26042 17.7734 9.14062C17.2572 9.9362 16.834 10.918 16.5039 12.0859C16.1823 13.2285 16.0215 14.2441 16.0215 15.1328C16.0215 15.5645 16.0426 15.9157 16.085 16.1865C16.1357 16.4574 16.2161 16.6689 16.3262 16.8213C16.4277 16.9736 16.5589 17.0837 16.7197 17.1514C16.8805 17.2106 17.0921 17.2402 17.3545 17.2402Z" fill="#F16B51"/>
        <path d="M26.5205 19.627C25.6911 19.627 25.0352 19.3815 24.5527 18.8906C24.0111 18.349 23.7402 17.5576 23.7402 16.5166C23.7402 16.0257 23.8079 15.4587 23.9434 14.8154L25.708 6.47461H29.4531L27.5869 15.3105C27.5361 15.5729 27.5107 15.8184 27.5107 16.0469C27.5107 16.7578 27.7689 17.1133 28.2852 17.1133C28.7591 17.1133 29.1865 16.8975 29.5674 16.4658C29.8721 16.1019 30.1387 15.5518 30.3672 14.8154L32.1318 6.47461H35.877L34.0107 15.3105C33.9346 15.5645 33.8965 15.8438 33.8965 16.1484C33.8965 16.5039 33.9811 16.7536 34.1504 16.8975C34.3197 17.0413 34.5905 17.1133 34.9629 17.1133C35.4453 17.1133 35.877 16.8975 36.2578 16.4658C36.5964 16.085 36.8672 15.5348 37.0703 14.8154H38.1621C37.6966 16.1357 37.1338 17.181 36.4736 17.9512C35.915 18.5859 35.2845 19.043 34.582 19.3223C34.0658 19.5254 33.5199 19.627 32.9443 19.627C32.1995 19.627 31.6071 19.4196 31.167 19.0049C30.7269 18.5902 30.4603 17.9766 30.3672 17.1641C29.7747 18.112 29.1061 18.7891 28.3613 19.1953C27.8281 19.4831 27.2145 19.627 26.5205 19.627Z" fill="#F16B51"/>
        <path d="M38.835 6.47461H42.5801L42.25 8.08691C42.8424 7.56217 43.3249 7.18978 43.6973 6.96973C44.2728 6.63965 44.8356 6.47461 45.3857 6.47461C45.9443 6.47461 46.3929 6.6735 46.7314 7.07129C46.8838 7.24902 46.998 7.45638 47.0742 7.69336C47.1504 7.92188 47.1885 8.16732 47.1885 8.42969C47.1885 8.66667 47.1504 8.89518 47.0742 9.11523C46.998 9.33529 46.8838 9.53418 46.7314 9.71191C46.5622 9.89811 46.3548 10.0462 46.1094 10.1562C45.8724 10.2663 45.6058 10.3213 45.3096 10.3213C45.0811 10.3213 44.8991 10.2832 44.7637 10.207C44.6283 10.1309 44.5225 10.0208 44.4463 9.87695C44.3786 9.73307 44.332 9.59342 44.3066 9.45801C44.2305 9.09408 44.1543 8.85286 44.0781 8.73438C44.0189 8.64974 43.9258 8.60742 43.7988 8.60742C43.4349 8.60742 43.126 8.68359 42.8721 8.83594C42.6182 8.98828 42.2966 9.24219 41.9072 9.59766L39.8252 19.4746H36.0801L38.835 6.47461Z" fill="#F16B51"/>
        <path d="M50.2988 19.627C49.1139 19.627 48.2126 19.3392 47.5947 18.7637C46.9769 18.1797 46.668 17.3587 46.668 16.3008C46.668 15.7337 46.7272 15.2386 46.8457 14.8154L49.626 1.79004L53.4727 1.26953L52.2285 7.12207C52.7279 6.81738 53.151 6.61426 53.498 6.5127C53.752 6.43652 54.0397 6.39844 54.3613 6.39844C55.3346 6.39844 56.0752 6.72428 56.583 7.37598C57.1501 8.1123 57.4336 9.26758 57.4336 10.8418C57.4336 11.3835 57.3828 11.9717 57.2812 12.6064C57.1797 13.2327 57.0231 13.8548 56.8115 14.4727C56.3037 15.9538 55.5674 17.1387 54.6025 18.0273C53.4346 19.0938 52 19.627 50.2988 19.627ZM51.7588 17.1133C52.2835 17.1133 52.7998 16.762 53.3076 16.0596C53.7477 15.4333 54.1117 14.6123 54.3994 13.5967C54.6702 12.598 54.8057 11.6458 54.8057 10.7402C54.8057 10.0378 54.6956 9.46224 54.4756 9.01367C54.3571 8.76823 54.209 8.5778 54.0312 8.44238C53.8535 8.30697 53.6504 8.23926 53.4219 8.23926C53.1257 8.23926 52.8591 8.26888 52.6221 8.32812C52.2666 8.42122 52.0212 8.54818 51.8857 8.70898L50.4639 15.3105C50.4131 15.5221 50.3877 15.721 50.3877 15.9072C50.3877 16.7113 50.8447 17.1133 51.7588 17.1133Z" fill="#F16B51"/>
        <path d="M61.5215 19.627C60.5312 19.627 59.7314 19.318 59.1221 18.7002C58.4111 17.9723 58.0557 16.889 58.0557 15.4502C58.0557 14.8408 58.1191 14.1976 58.2461 13.5205C58.3646 12.8434 58.5423 12.1748 58.7793 11.5146C59.321 10.0251 60.0615 8.82324 61.001 7.90918C62.0843 6.86816 63.3327 6.34766 64.7461 6.34766C65.4486 6.34766 65.9733 6.47038 66.3203 6.71582C66.6758 6.9528 66.8535 7.27018 66.8535 7.66797V7.8584L67.1328 6.47461H70.8779L69.0117 15.3105C68.9355 15.5645 68.8975 15.8438 68.8975 16.1484C68.8975 16.8932 69.2529 17.2656 69.9639 17.2656C70.4378 17.2656 70.8695 17.0244 71.2588 16.542C71.5889 16.1357 71.8597 15.5602 72.0713 14.8154H73.1631C72.6976 16.1357 72.1348 17.181 71.4746 17.9512C70.916 18.5859 70.2855 19.043 69.583 19.3223C69.0667 19.5254 68.5208 19.627 67.9453 19.627C67.209 19.627 66.6208 19.4281 66.1807 19.0303C65.749 18.624 65.4867 18.0273 65.3936 17.2402C64.9027 17.9342 64.3864 18.4759 63.8447 18.8652C63.1507 19.373 62.3763 19.627 61.5215 19.627ZM63.21 17.1133C63.4046 17.1133 63.6077 17.0625 63.8193 16.9609C64.0394 16.8594 64.251 16.7155 64.4541 16.5293C64.9111 16.0892 65.2158 15.5179 65.3682 14.8154L66.6123 8.9502C66.6123 8.86556 66.5911 8.76823 66.5488 8.6582C66.515 8.53971 66.4642 8.42969 66.3965 8.32812C66.1934 8.08268 65.9098 7.95996 65.5459 7.95996C65.1989 7.95996 64.8604 8.07422 64.5303 8.30273C64.2087 8.53125 63.904 8.84863 63.6162 9.25488C63.1084 9.99121 62.6895 10.9518 62.3594 12.1367C62.207 12.6615 62.0928 13.182 62.0166 13.6982C61.9404 14.2061 61.9023 14.6673 61.9023 15.082C61.9023 15.9453 62.0632 16.5293 62.3848 16.834C62.4948 16.9525 62.6175 17.0286 62.7529 17.0625C62.8883 17.0964 63.0407 17.1133 63.21 17.1133Z" fill="#F16B51"/>
        <path d="M76.1338 25.9746C75.7275 25.9746 75.3467 25.9196 74.9912 25.8096C74.6442 25.708 74.3438 25.5514 74.0898 25.3398C73.819 25.1283 73.6074 24.8617 73.4551 24.54C73.3027 24.2269 73.2266 23.863 73.2266 23.4482C73.2266 22.4665 73.6878 21.6243 74.6104 20.9219C75.3044 20.4056 76.2565 19.957 77.4668 19.5762L77.7842 18.1797C77.2764 18.7383 76.7262 19.1318 76.1338 19.3604C75.6768 19.5381 75.1859 19.627 74.6611 19.627C73.8317 19.627 73.1758 19.3815 72.6934 18.8906C72.1517 18.349 71.8809 17.5576 71.8809 16.5166C71.8809 16.0257 71.9486 15.4587 72.084 14.8154L73.8486 6.47461H77.5938L75.7275 15.3105C75.6768 15.5221 75.6514 15.7422 75.6514 15.9707C75.6514 16.3008 75.7064 16.5632 75.8164 16.7578C75.9434 16.9948 76.1465 17.1133 76.4258 17.1133C76.8828 17.1133 77.2933 16.9102 77.6572 16.5039C77.9704 16.1569 78.237 15.6491 78.457 14.9805L80.2725 6.47461H84.0176L81.4404 18.5352C82.2614 18.2643 82.9173 17.8581 83.4082 17.3164C83.9414 16.7324 84.3773 15.8988 84.7158 14.8154H85.8076C85.3421 16.3558 84.6481 17.5449 83.7256 18.3828C83.0485 18.9922 82.2106 19.4238 81.2119 19.6777L80.8184 21.5566C80.4883 23.2155 79.8281 24.4173 78.8379 25.1621C78.1185 25.7038 77.2171 25.9746 76.1338 25.9746ZM75.5371 23.9434C75.7995 23.9434 76.0788 23.7529 76.375 23.3721C76.6628 22.9997 76.887 22.4199 77.0479 21.6328L77.2002 20.8838C76.4131 21.18 75.8249 21.4805 75.4355 21.7852C74.9193 22.1745 74.6611 22.6104 74.6611 23.0928C74.6611 23.3213 74.7331 23.5117 74.877 23.6641C75.0378 23.8503 75.2578 23.9434 75.5371 23.9434Z" fill="#F16B51"/>
      </g>
      <g id="Mask group">
        <mask id="mask0_8_36" style="mask-type:alpha" maskUnits="userSpaceOnUse" x="0" y="0" width="86" height="26">
          <g id="Tourbay_2">
            <path d="M7.76953 2.25977H7.46484C5.92448 2.25977 4.76497 2.611 3.98633 3.31348C3.04688 4.15983 2.57715 5.56055 2.57715 7.51562C2.57715 8.05729 2.63639 8.48893 2.75488 8.81055C2.78874 8.92057 2.83105 9.0179 2.88184 9.10254C2.91569 9.16178 2.93262 9.22103 2.93262 9.28027C1.99316 9.28027 1.30762 9.09408 0.875977 8.72168C0.393555 8.31543 0.152344 7.66374 0.152344 6.7666C0.152344 5.86947 0.317383 5.01888 0.647461 4.21484C0.986003 3.40234 1.49805 2.69141 2.18359 2.08203C2.91992 1.42188 3.85514 0.909831 4.98926 0.545898C6.13184 0.181966 7.47754 0 9.02637 0C9.91504 0 10.7656 0.0507812 11.5781 0.152344C11.832 0.177734 12.1621 0.224284 12.5684 0.291992C13.2454 0.418945 13.8971 0.503581 14.5234 0.545898C14.8281 0.579753 15.2132 0.59668 15.6787 0.59668C16.2542 0.59668 16.8044 0.545898 17.3291 0.444336C17.8538 0.342773 18.3109 0.211589 18.7002 0.0507812C18.6579 1.1849 18.3659 2.01855 17.8242 2.55176C17.291 3.08496 16.4997 3.35156 15.4502 3.35156C14.8831 3.35156 14.3118 3.30501 13.7363 3.21191C13.1608 3.11882 12.3864 2.97493 11.4131 2.78027L7.82031 19.4746H4.08789L7.76953 2.25977Z" fill="#F16B51"/>
            <path d="M16.3135 19.5762C15.027 19.5762 14.0326 19.263 13.3301 18.6367C12.543 17.9427 12.1494 16.889 12.1494 15.4756C12.1494 14.9424 12.2044 14.3542 12.3145 13.7109C12.4245 13.0592 12.5938 12.4033 12.8223 11.7432C13.347 10.1689 14.096 8.91211 15.0693 7.97266C16.2458 6.82161 17.6465 6.24609 19.2715 6.24609C21.4974 6.24609 22.6104 7.62988 22.6104 10.3975V10.4229C22.6611 10.4398 22.7035 10.4482 22.7373 10.4482H22.8896C23.4652 10.4482 24.1465 10.2874 24.9336 9.96582C25.6276 9.67806 26.2835 9.31836 26.9014 8.88672L27.1299 9.59766C26.6221 10.1309 25.9661 10.5837 25.1621 10.9561C24.3665 11.3285 23.4863 11.5951 22.5215 11.7559C22.4199 12.9323 22.1914 14.0072 21.8359 14.9805C21.4805 15.9453 21.0234 16.7747 20.4648 17.4688C19.9147 18.1458 19.2842 18.6663 18.5732 19.0303C17.8623 19.3942 17.109 19.5762 16.3135 19.5762ZM17.3545 17.2402C17.6592 17.2402 17.9681 17.1048 18.2812 16.834C18.6029 16.5547 18.9033 16.1696 19.1826 15.6787C19.4619 15.1878 19.7031 14.6123 19.9062 13.9521C20.1094 13.292 20.2617 12.5853 20.3633 11.832C20.1094 11.7643 19.9274 11.6374 19.8174 11.4512C19.7158 11.265 19.665 11.028 19.665 10.7402C19.665 10.3848 19.737 10.0885 19.8809 9.85156C20.0247 9.61458 20.2236 9.44108 20.4775 9.33105C20.4437 8.78092 20.3548 8.38737 20.2109 8.15039C20.1348 8.0319 20.0374 7.94727 19.9189 7.89648C19.8089 7.8457 19.665 7.82031 19.4873 7.82031C18.9033 7.82031 18.332 8.26042 17.7734 9.14062C17.2572 9.9362 16.834 10.918 16.5039 12.0859C16.1823 13.2285 16.0215 14.2441 16.0215 15.1328C16.0215 15.5645 16.0426 15.9157 16.085 16.1865C16.1357 16.4574 16.2161 16.6689 16.3262 16.8213C16.4277 16.9736 16.5589 17.0837 16.7197 17.1514C16.8805 17.2106 17.0921 17.2402 17.3545 17.2402Z" fill="#F16B51"/>
            <path d="M26.5205 19.627C25.6911 19.627 25.0352 19.3815 24.5527 18.8906C24.0111 18.349 23.7402 17.5576 23.7402 16.5166C23.7402 16.0257 23.8079 15.4587 23.9434 14.8154L25.708 6.47461H29.4531L27.5869 15.3105C27.5361 15.5729 27.5107 15.8184 27.5107 16.0469C27.5107 16.7578 27.7689 17.1133 28.2852 17.1133C28.7591 17.1133 29.1865 16.8975 29.5674 16.4658C29.8721 16.1019 30.1387 15.5518 30.3672 14.8154L32.1318 6.47461H35.877L34.0107 15.3105C33.9346 15.5645 33.8965 15.8438 33.8965 16.1484C33.8965 16.5039 33.9811 16.7536 34.1504 16.8975C34.3197 17.0413 34.5905 17.1133 34.9629 17.1133C35.4453 17.1133 35.877 16.8975 36.2578 16.4658C36.5964 16.085 36.8672 15.5348 37.0703 14.8154H38.1621C37.6966 16.1357 37.1338 17.181 36.4736 17.9512C35.915 18.5859 35.2845 19.043 34.582 19.3223C34.0658 19.5254 33.5199 19.627 32.9443 19.627C32.1995 19.627 31.6071 19.4196 31.167 19.0049C30.7269 18.5902 30.4603 17.9766 30.3672 17.1641C29.7747 18.112 29.1061 18.7891 28.3613 19.1953C27.8281 19.4831 27.2145 19.627 26.5205 19.627Z" fill="#F16B51"/>
            <path d="M38.835 6.47461H42.5801L42.25 8.08691C42.8424 7.56217 43.3249 7.18978 43.6973 6.96973C44.2728 6.63965 44.8356 6.47461 45.3857 6.47461C45.9443 6.47461 46.3929 6.6735 46.7314 7.07129C46.8838 7.24902 46.998 7.45638 47.0742 7.69336C47.1504 7.92188 47.1885 8.16732 47.1885 8.42969C47.1885 8.66667 47.1504 8.89518 47.0742 9.11523C46.998 9.33529 46.8838 9.53418 46.7314 9.71191C46.5622 9.89811 46.3548 10.0462 46.1094 10.1562C45.8724 10.2663 45.6058 10.3213 45.3096 10.3213C45.0811 10.3213 44.8991 10.2832 44.7637 10.207C44.6283 10.1309 44.5225 10.0208 44.4463 9.87695C44.3786 9.73307 44.332 9.59342 44.3066 9.45801C44.2305 9.09408 44.1543 8.85286 44.0781 8.73438C44.0189 8.64974 43.9258 8.60742 43.7988 8.60742C43.4349 8.60742 43.126 8.68359 42.8721 8.83594C42.6182 8.98828 42.2966 9.24219 41.9072 9.59766L39.8252 19.4746H36.0801L38.835 6.47461Z" fill="#F16B51"/>
            <path d="M50.2988 19.627C49.1139 19.627 48.2126 19.3392 47.5947 18.7637C46.9769 18.1797 46.668 17.3587 46.668 16.3008C46.668 15.7337 46.7272 15.2386 46.8457 14.8154L49.626 1.79004L53.4727 1.26953L52.2285 7.12207C52.7279 6.81738 53.151 6.61426 53.498 6.5127C53.752 6.43652 54.0397 6.39844 54.3613 6.39844C55.3346 6.39844 56.0752 6.72428 56.583 7.37598C57.1501 8.1123 57.4336 9.26758 57.4336 10.8418C57.4336 11.3835 57.3828 11.9717 57.2812 12.6064C57.1797 13.2327 57.0231 13.8548 56.8115 14.4727C56.3037 15.9538 55.5674 17.1387 54.6025 18.0273C53.4346 19.0938 52 19.627 50.2988 19.627ZM51.7588 17.1133C52.2835 17.1133 52.7998 16.762 53.3076 16.0596C53.7477 15.4333 54.1117 14.6123 54.3994 13.5967C54.6702 12.598 54.8057 11.6458 54.8057 10.7402C54.8057 10.0378 54.6956 9.46224 54.4756 9.01367C54.3571 8.76823 54.209 8.5778 54.0312 8.44238C53.8535 8.30697 53.6504 8.23926 53.4219 8.23926C53.1257 8.23926 52.8591 8.26888 52.6221 8.32812C52.2666 8.42122 52.0212 8.54818 51.8857 8.70898L50.4639 15.3105C50.4131 15.5221 50.3877 15.721 50.3877 15.9072C50.3877 16.7113 50.8447 17.1133 51.7588 17.1133Z" fill="#F16B51"/>
            <path d="M61.5215 19.627C60.5312 19.627 59.7314 19.318 59.1221 18.7002C58.4111 17.9723 58.0557 16.889 58.0557 15.4502C58.0557 14.8408 58.1191 14.1976 58.2461 13.5205C58.3646 12.8434 58.5423 12.1748 58.7793 11.5146C59.321 10.0251 60.0615 8.82324 61.001 7.90918C62.0843 6.86816 63.3327 6.34766 64.7461 6.34766C65.4486 6.34766 65.9733 6.47038 66.3203 6.71582C66.6758 6.9528 66.8535 7.27018 66.8535 7.66797V7.8584L67.1328 6.47461H70.8779L69.0117 15.3105C68.9355 15.5645 68.8975 15.8438 68.8975 16.1484C68.8975 16.8932 69.2529 17.2656 69.9639 17.2656C70.4378 17.2656 70.8695 17.0244 71.2588 16.542C71.5889 16.1357 71.8597 15.5602 72.0713 14.8154H73.1631C72.6976 16.1357 72.1348 17.181 71.4746 17.9512C70.916 18.5859 70.2855 19.043 69.583 19.3223C69.0667 19.5254 68.5208 19.627 67.9453 19.627C67.209 19.627 66.6208 19.4281 66.1807 19.0303C65.749 18.624 65.4867 18.0273 65.3936 17.2402C64.9027 17.9342 64.3864 18.4759 63.8447 18.8652C63.1507 19.373 62.3763 19.627 61.5215 19.627ZM63.21 17.1133C63.4046 17.1133 63.6077 17.0625 63.8193 16.9609C64.0394 16.8594 64.251 16.7155 64.4541 16.5293C64.9111 16.0892 65.2158 15.5179 65.3682 14.8154L66.6123 8.9502C66.6123 8.86556 66.5911 8.76823 66.5488 8.6582C66.515 8.53971 66.4642 8.42969 66.3965 8.32812C66.1934 8.08268 65.9098 7.95996 65.5459 7.95996C65.1989 7.95996 64.8604 8.07422 64.5303 8.30273C64.2087 8.53125 63.904 8.84863 63.6162 9.25488C63.1084 9.99121 62.6895 10.9518 62.3594 12.1367C62.207 12.6615 62.0928 13.182 62.0166 13.6982C61.9404 14.2061 61.9023 14.6673 61.9023 15.082C61.9023 15.9453 62.0632 16.5293 62.3848 16.834C62.4948 16.9525 62.6175 17.0286 62.7529 17.0625C62.8883 17.0964 63.0407 17.1133 63.21 17.1133Z" fill="#F16B51"/>
            <path d="M76.1338 25.9746C75.7275 25.9746 75.3467 25.9196 74.9912 25.8096C74.6442 25.708 74.3438 25.5514 74.0898 25.3398C73.819 25.1283 73.6074 24.8617 73.4551 24.54C73.3027 24.2269 73.2266 23.863 73.2266 23.4482C73.2266 22.4665 73.6878 21.6243 74.6104 20.9219C75.3044 20.4056 76.2565 19.957 77.4668 19.5762L77.7842 18.1797C77.2764 18.7383 76.7262 19.1318 76.1338 19.3604C75.6768 19.5381 75.1859 19.627 74.6611 19.627C73.8317 19.627 73.1758 19.3815 72.6934 18.8906C72.1517 18.349 71.8809 17.5576 71.8809 16.5166C71.8809 16.0257 71.9486 15.4587 72.084 14.8154L73.8486 6.47461H77.5938L75.7275 15.3105C75.6768 15.5221 75.6514 15.7422 75.6514 15.9707C75.6514 16.3008 75.7064 16.5632 75.8164 16.7578C75.9434 16.9948 76.1465 17.1133 76.4258 17.1133C76.8828 17.1133 77.2933 16.9102 77.6572 16.5039C77.9704 16.1569 78.237 15.6491 78.457 14.9805L80.2725 6.47461H84.0176L81.4404 18.5352C82.2614 18.2643 82.9173 17.8581 83.4082 17.3164C83.9414 16.7324 84.3773 15.8988 84.7158 14.8154H85.8076C85.3421 16.3558 84.6481 17.5449 83.7256 18.3828C83.0485 18.9922 82.2106 19.4238 81.2119 19.6777L80.8184 21.5566C80.4883 23.2155 79.8281 24.4173 78.8379 25.1621C78.1185 25.7038 77.2171 25.9746 76.1338 25.9746ZM75.5371 23.9434C75.7995 23.9434 76.0788 23.7529 76.375 23.3721C76.6628 22.9997 76.887 22.4199 77.0479 21.6328L77.2002 20.8838C76.4131 21.18 75.8249 21.4805 75.4355 21.7852C74.9193 22.1745 74.6611 22.6104 74.6611 23.0928C74.6611 23.3213 74.7331 23.5117 74.877 23.6641C75.0378 23.8503 75.2578 23.9434 75.5371 23.9434Z" fill="#F16B51"/>
          </g>
        </mask>
        <g mask="url(#mask0_8_36)">
          <path id="Vector 6" d="M45.7537 37.8178C46.1563 27.6105 47.1287 5.5838 47.7971 -0.86394L84.2997 -19.5254L98.5348 33.6005L45.7537 37.8178Z" fill="#202445"/>
        </g>
      </g>
    </g>
  </g>
</svg>
