<svg width="32" height="32" viewBox="0 0 32 32" fill="none" xmlns="http://www.w3.org/2000/svg">
<circle cx="16" cy="16" r="16" fill="#F4F4F4"/>
<path d="M20.54 19.18C20.54 19.82 20.38 20.4333 20.06 21.02C19.74 21.5933 19.2667 22.0733 18.64 22.46C18.0267 22.8467 17.2867 23.0667 16.42 23.12V24.74H15.34V23.12C14.1267 23.0133 13.14 22.6267 12.38 21.96C11.62 21.28 11.2333 20.42 11.22 19.38H13.16C13.2133 19.94 13.42 20.4267 13.78 20.84C14.1533 21.2533 14.6733 21.5133 15.34 21.62V16.62C14.4467 16.3933 13.7267 16.16 13.18 15.92C12.6333 15.68 12.1667 15.3067 11.78 14.8C11.3933 14.2933 11.2 13.6133 11.2 12.76C11.2 11.68 11.5733 10.7867 12.32 10.08C13.08 9.37333 14.0867 8.98 15.34 8.9V7.24H16.42V8.9C17.5533 8.99333 18.4667 9.36 19.16 10C19.8533 10.6267 20.2533 11.4467 20.36 12.46H18.42C18.3533 11.9933 18.1467 11.5733 17.8 11.2C17.4533 10.8133 16.9933 10.56 16.42 10.44V15.32C17.3 15.5467 18.0133 15.78 18.56 16.02C19.12 16.2467 19.5867 16.6133 19.96 17.12C20.3467 17.6267 20.54 18.3133 20.54 19.18ZM13.06 12.66C13.06 13.3133 13.2533 13.8133 13.64 14.16C14.0267 14.5067 14.5933 14.7933 15.34 15.02V10.4C14.6467 10.4667 14.0933 10.6933 13.68 11.08C13.2667 11.4533 13.06 11.98 13.06 12.66ZM16.42 21.64C17.14 21.56 17.7 21.3 18.1 20.86C18.5133 20.42 18.72 19.8933 18.72 19.28C18.72 18.6267 18.52 18.1267 18.12 17.78C17.72 17.42 17.1533 17.1333 16.42 16.92V21.64Z" fill="#75778B"/>
</svg>
