<svg width="36" height="36" viewBox="0 0 36 36" fill="none" xmlns="http://www.w3.org/2000/svg">
<g id="Group 154">
<circle id="Ellipse 7" cx="17.3864" cy="18" r="9.88636" fill="white" stroke="#75778B" stroke-width="1.5"/>
<g id="Group 153">
<g id="Group 149">
<rect id="Rectangle 100" x="17.3857" width="1.22727" height="4.09091" rx="0.613636" fill="#75778B"/>
<rect id="Rectangle 101" x="17.3857" y="31.9091" width="1.22727" height="4.09091" rx="0.613636" fill="#75778B"/>
</g>
<g id="Group 152">
<rect id="Rectangle 100_2" y="18.6136" width="1.22727" height="4.09091" rx="0.613636" transform="rotate(-90 0 18.6136)" fill="#75778B"/>
<rect id="Rectangle 101_2" x="31.9092" y="18.6136" width="1.22727" height="4.09091" rx="0.613636" transform="rotate(-90 31.9092 18.6136)" fill="#75778B"/>
</g>
<g id="Group 151">
<rect id="Rectangle 100_3" x="30.2949" y="4.83801" width="1.22727" height="4.09091" rx="0.613636" transform="rotate(45 30.2949 4.83801)" fill="#75778B"/>
<rect id="Rectangle 101_3" x="7.73145" y="27.4011" width="1.22727" height="4.09091" rx="0.613636" transform="rotate(45 7.73145 27.4011)" fill="#75778B"/>
</g>
<g id="Group 150">
<rect id="Rectangle 100_4" x="4.83789" y="5.70599" width="1.22727" height="4.09091" rx="0.613636" transform="rotate(-45 4.83789 5.70599)" fill="#75778B"/>
<rect id="Rectangle 101_4" x="27.4014" y="28.2691" width="1.22727" height="4.09091" rx="0.613636" transform="rotate(-45 27.4014 28.2691)" fill="#75778B"/>
</g>
</g>
</g>
</svg>
